<svg xmlns="http://www.w3.org/2000/svg" width="24" height="24" viewBox="0 0 24 24" fill="none">
    <path d="M12.003 15.425C12.9677 15.425 13.7875 15.0948 14.4625 14.4345C15.1375 13.7743 15.475 12.9618 15.475 11.997C15.475 11.0323 15.1365 10.2125 14.4596 9.53749C13.7826 8.86249 12.9618 8.52499 11.9971 8.52499C11.0324 8.52499 10.2209 8.86348 9.56252 9.54044C8.90419 10.2174 8.57502 11.0382 8.57502 12.0029C8.57502 12.9676 8.90517 13.7792 9.56547 14.4375C10.2258 15.0958 11.0383 15.425 12.003 15.425ZM12 13C11.7167 13 11.4792 12.9042 11.2875 12.7125C11.0959 12.5208 11 12.2833 11 12C11 11.7167 11.0959 11.4792 11.2875 11.2875C11.4792 11.0958 11.7167 11 12 11C12.2834 11 12.5209 11.0958 12.7125 11.2875C12.9042 11.4792 13 11.7167 13 12C13 12.2833 12.9042 12.5208 12.7125 12.7125C12.5209 12.9042 12.2834 13 12 13ZM11.9929 21.1C10.737 21.1 9.55987 20.8591 8.46157 20.3772C7.36326 19.8954 6.40297 19.2438 5.58072 18.4225C4.75846 17.6012 4.10611 16.641 3.62367 15.5419C3.14124 14.4427 2.90002 13.2635 2.90002 12.0043C2.90002 10.7469 3.14144 9.56456 3.62427 8.45729C4.10712 7.35004 4.76157 6.38302 5.58762 5.55622C6.41367 4.72942 7.37327 4.08002 8.4664 3.60802C9.55952 3.136 10.7322 2.89999 11.9846 2.89999C13.243 2.89999 14.4284 3.13571 15.5407 3.60714C16.6531 4.07858 17.6208 4.72731 18.444 5.55334C19.2671 6.37938 19.9156 7.34673 20.3894 8.45539C20.8631 9.56406 21.1 10.7487 21.1 12.0092C21.1 13.2697 20.8643 14.445 20.3929 15.5349C19.9214 16.6249 19.2728 17.5832 18.447 18.4098C17.6212 19.2364 16.6541 19.8915 15.5457 20.3749C14.4374 20.8583 13.2531 21.1 11.9929 21.1Z" fill="#90C47B"/>
</svg>