<svg xmlns="http://www.w3.org/2000/svg" width="24" height="24" viewBox="0 0 18 18" fill="none">
    <path d="M8.99998 8.2875C8.3692 8.2875 7.84901 8.08269 7.43939 7.67308C7.02978 7.26348 6.82498 6.74329 6.82498 6.1125C6.82498 5.46921 7.02978 4.94589 7.43939 4.54254C7.84901 4.13918 8.3692 3.9375 8.99998 3.9375C9.63076 3.9375 10.151 4.13918 10.5606 4.54254C10.9702 4.94589 11.175 5.46921 11.175 6.1125C11.175 6.74329 10.9702 7.26348 10.5606 7.67308C10.151 8.08269 9.63076 8.2875 8.99998 8.2875ZM3.69373 13.5187V13.0574C3.69373 12.7275 3.78689 12.428 3.97321 12.159C4.15954 11.89 4.41013 11.6807 4.72498 11.5312C5.46248 11.1937 6.18776 10.9406 6.90084 10.7719C7.61391 10.6031 8.31391 10.5187 9.00084 10.5187C9.68776 10.5187 10.3875 10.6031 11.1 10.7719C11.8125 10.9406 12.5375 11.1937 13.275 11.5312C13.5898 11.6807 13.8404 11.89 14.0267 12.159C14.2131 12.428 14.3062 12.7275 14.3062 13.0574V13.5187C14.3062 13.7187 14.2406 13.8844 14.1094 14.0156C13.9781 14.1469 13.8125 14.2125 13.6125 14.2125H4.38748C4.18748 14.2125 4.02185 14.1469 3.8906 14.0156C3.75935 13.8844 3.69373 13.7187 3.69373 13.5187Z" fill="#90C47B"/>
</svg>