<svg xmlns="http://www.w3.org/2000/svg" width="20" height="20" viewBox="0 0 20 20" fill="none">
    <path d="M4.64583 17.5625C4.26389 17.5625 3.93576 17.4253 3.66146 17.151C3.38715 16.8767 3.25 16.5486 3.25 16.1667V5.33333C3.25 4.95139 3.38715 4.62326 3.66146 4.34896C3.93576 4.07465 4.26389 3.9375 4.64583 3.9375H6.14583V2.60417C6.14583 2.49826 6.18608 2.40235 6.26658 2.31642C6.3471 2.23047 6.44293 2.1875 6.55408 2.1875C6.67115 2.1875 6.77127 2.23047 6.85444 2.31642C6.93759 2.40235 6.97917 2.49826 6.97917 2.60417V3.9375H13.1042V2.56835C13.1042 2.45855 13.1423 2.36762 13.2187 2.29558C13.2951 2.22353 13.384 2.1875 13.4854 2.1875C13.5927 2.1875 13.6845 2.22508 13.7607 2.30025C13.8369 2.37543 13.875 2.46285 13.875 2.5625V3.9375H15.3542C15.7361 3.9375 16.0642 4.07465 16.3385 4.34896C16.6128 4.62326 16.75 4.95139 16.75 5.33333V16.1667C16.75 16.5486 16.6128 16.8767 16.3385 17.151C16.0642 17.4253 15.7361 17.5625 15.3542 17.5625H4.64583ZM4.64583 16.8333H15.3542C15.5208 16.8333 15.6736 16.7639 15.8125 16.625C15.9514 16.4861 16.0208 16.3333 16.0208 16.1667V8.72917H3.97917V16.1667C3.97917 16.3333 4.04861 16.4861 4.1875 16.625C4.32639 16.7639 4.47917 16.8333 4.64583 16.8333ZM9.99598 11.8958C9.83199 11.8958 9.68403 11.8285 9.55208 11.6939C9.42014 11.5593 9.35417 11.41 9.35417 11.246C9.35417 11.082 9.42148 10.934 9.5561 10.8021C9.69073 10.6701 9.84003 10.6042 10.004 10.6042C10.168 10.6042 10.316 10.6715 10.4479 10.8061C10.5799 10.9407 10.6458 11.09 10.6458 11.254C10.6458 11.418 10.5785 11.566 10.4439 11.6979C10.3093 11.8299 10.16 11.8958 9.99598 11.8958ZM6.66265 11.8958C6.49866 11.8958 6.35069 11.8285 6.21875 11.6939C6.08681 11.5593 6.02083 11.41 6.02083 11.246C6.02083 11.082 6.08815 10.934 6.22277 10.8021C6.3574 10.6701 6.5067 10.6042 6.67069 10.6042C6.83467 10.6042 6.98264 10.6715 7.11458 10.8061C7.24653 10.9407 7.3125 11.09 7.3125 11.254C7.3125 11.418 7.24519 11.566 7.11056 11.6979C6.97594 11.8299 6.82663 11.8958 6.66265 11.8958ZM13.3293 11.8958C13.1653 11.8958 13.0174 11.8285 12.8854 11.6939C12.7535 11.5593 12.6875 11.41 12.6875 11.246C12.6875 11.082 12.7548 10.934 12.8894 10.8021C13.0241 10.6701 13.1734 10.6042 13.3374 10.6042C13.5013 10.6042 13.6493 10.6715 13.7812 10.8061C13.9132 10.9407 13.9792 11.09 13.9792 11.254C13.9792 11.418 13.9119 11.566 13.7772 11.6979C13.6426 11.8299 13.4933 11.8958 13.3293 11.8958ZM9.99598 15.0625C9.83199 15.0625 9.68403 14.9952 9.55208 14.8606C9.42014 14.7259 9.35417 14.5766 9.35417 14.4126C9.35417 14.2487 9.42148 14.1007 9.5561 13.9688C9.69073 13.8368 9.84003 13.7708 10.004 13.7708C10.168 13.7708 10.316 13.8381 10.4479 13.9728C10.5799 14.1074 10.6458 14.2567 10.6458 14.4207C10.6458 14.5847 10.5785 14.7326 10.4439 14.8646C10.3093 14.9965 10.16 15.0625 9.99598 15.0625ZM6.66265 15.0625C6.49866 15.0625 6.35069 14.9952 6.21875 14.8606C6.08681 14.7259 6.02083 14.5766 6.02083 14.4126C6.02083 14.2487 6.08815 14.1007 6.22277 13.9688C6.3574 13.8368 6.5067 13.7708 6.67069 13.7708C6.83467 13.7708 6.98264 13.8381 7.11458 13.9728C7.24653 14.1074 7.3125 14.2567 7.3125 14.4207C7.3125 14.5847 7.24519 14.7326 7.11056 14.8646C6.97594 14.9965 6.82663 15.0625 6.66265 15.0625ZM13.3293 15.0625C13.1653 15.0625 13.0174 14.9952 12.8854 14.8606C12.7535 14.7259 12.6875 14.5766 12.6875 14.4126C12.6875 14.2487 12.7548 14.1007 12.8894 13.9688C13.0241 13.8368 13.1734 13.7708 13.3374 13.7708C13.5013 13.7708 13.6493 13.8381 13.7812 13.9728C13.9132 14.1074 13.9792 14.2567 13.9792 14.4207C13.9792 14.5847 13.9119 14.7326 13.7772 14.8646C13.6426 14.9965 13.4933 15.0625 13.3293 15.0625Z" fill="#90C47B"/>
</svg>