<svg xmlns="http://www.w3.org/2000/svg" width="24" height="24" viewBox="0 0 24 24" fill="none">
    <path d="M4.40002 4.925L5.85002 7.925H8.97502L7.50002 4.925H9.60002L11.05 7.925H14.175L12.7 4.925H14.775L16.25 7.925H19.375L17.875 4.925H19.425C19.8917 4.925 20.2875 5.0875 20.6125 5.4125C20.9375 5.7375 21.1 6.13334 21.1 6.6V17.4C21.1 17.8667 20.9375 18.2625 20.6125 18.5875C20.2875 18.9125 19.8917 19.075 19.425 19.075H4.57502C4.10836 19.075 3.71252 18.9125 3.38752 18.5875C3.06252 18.2625 2.90002 17.8667 2.90002 17.4V6.6C2.90002 6.13334 3.03752 5.75417 3.31252 5.4625C3.58752 5.17084 3.95002 4.99167 4.40002 4.925Z" fill="#90C47B"/>
</svg>