<svg xmlns="http://www.w3.org/2000/svg" width="24" height="24" viewBox="0 0 24 24" fill="none">
    <path d="M10.0935 16.2336V12.3925H14.2991C14.3888 12.3925 14.472 12.3538 14.5486 12.2764C14.6252 12.199 14.6636 12.1056 14.6636 11.9961C14.6636 11.9052 14.6252 11.8224 14.5486 11.7477C14.472 11.6729 14.3888 11.6355 14.2991 11.6355H10.0935V7.79439H14.2991C14.3888 7.79439 14.472 7.7557 14.5486 7.67832C14.6252 7.60092 14.6636 7.50746 14.6636 7.39794C14.6636 7.3071 14.6252 7.2243 14.5486 7.14953C14.472 7.07477 14.3888 7.03738 14.2991 7.03738H9.72897C9.62056 7.03738 9.52804 7.0757 9.4514 7.15234C9.37477 7.22897 9.33645 7.31215 9.33645 7.40187V16.5981C9.33645 16.7065 9.37477 16.7991 9.4514 16.8757C9.52804 16.9523 9.62056 16.9907 9.72897 16.9907H14.2991C14.3888 16.9907 14.472 16.952 14.5486 16.8746C14.6252 16.7972 14.6636 16.7037 14.6636 16.5942C14.6636 16.5034 14.6252 16.4206 14.5486 16.3458C14.472 16.271 14.3888 16.2336 14.2991 16.2336H10.0935ZM4.8785 21C4.36449 21 3.9229 20.8154 3.55374 20.4463C3.18458 20.0771 3 19.6355 3 19.1215V4.8785C3 4.36449 3.18458 3.9229 3.55374 3.55374C3.9229 3.18458 4.36449 3 4.8785 3H19.1215C19.6355 3 20.0771 3.18458 20.4463 3.55374C20.8154 3.9229 21 4.36449 21 4.8785V19.1215C21 19.6355 20.8154 20.0771 20.4463 20.4463C20.0771 20.8154 19.6355 21 19.1215 21H4.8785Z" fill="white"/>
</svg>