<svg xmlns="http://www.w3.org/2000/svg" width="25" height="25" viewBox="0 0 25 25" fill="none">
    <path d="M12.474 19.8698C12.2483 19.8698 12.0356 19.8307 11.8359 19.7526C11.6363 19.6745 11.4583 19.566 11.3021 19.4271L10.2344 18.4375C8.3073 16.7014 6.62327 15.013 5.1823 13.3724C3.74133 11.7318 3.02084 10.0434 3.02084 8.30727C3.02084 6.98783 3.47223 5.88106 4.37501 4.98696C5.27779 4.09286 6.3889 3.64581 7.70834 3.64581C8.45487 3.64581 9.24914 3.84981 10.0912 4.25779C10.9332 4.66578 11.7361 5.44269 12.5 6.58852C13.2813 5.44269 14.0842 4.66578 14.9089 4.25779C15.7335 3.84981 16.5278 3.64581 17.2917 3.64581C18.6111 3.64581 19.7222 4.09286 20.625 4.98696C21.5278 5.88106 21.9792 6.98783 21.9792 8.30727C21.9792 10.0955 21.2109 11.8229 19.6745 13.4896C18.138 15.1562 16.5191 16.7882 14.8177 18.3854L13.6719 19.4271C13.5156 19.566 13.3333 19.6745 13.125 19.7526C12.9167 19.8307 12.6997 19.8698 12.474 19.8698Z" fill="#90C47B"/>
</svg>