<svg xmlns="http://www.w3.org/2000/svg" width="48" height="48" viewBox="0 0 48 48" fill="none">
    <path d="M7.89999 30.2V17.8C7.89999 17.3 8.05833 16.8916 8.37499 16.575C8.69166 16.2583 9.08333 16.1 9.54999 16.1C9.74999 16.1 9.92499 16.1333 10.075 16.2C10.225 16.2666 10.3833 16.35 10.55 16.45L19.7 22.55C19.9333 22.7166 20.1083 22.9333 20.225 23.2C20.3417 23.4666 20.4 23.7333 20.4 24C20.4 24.2666 20.3417 24.5333 20.225 24.8C20.1083 25.0666 19.9333 25.2666 19.7 25.4L10.55 31.55C10.3833 31.65 10.225 31.725 10.075 31.775C9.92499 31.825 9.74999 31.85 9.54999 31.85C9.08333 31.85 8.69166 31.7 8.37499 31.4C8.05833 31.1 7.89999 30.7 7.89999 30.2ZM26.3 30.2V17.8C26.3 17.3 26.4583 16.8916 26.775 16.575C27.0917 16.2583 27.4833 16.1 27.95 16.1C28.15 16.1 28.325 16.1333 28.475 16.2C28.625 16.2666 28.7833 16.35 28.95 16.45L38.1 22.55C38.3333 22.7166 38.5083 22.9333 38.625 23.2C38.7417 23.4666 38.8 23.7333 38.8 24C38.8 24.2666 38.7417 24.5333 38.625 24.8C38.5083 25.0666 38.3333 25.2666 38.1 25.4L28.95 31.55C28.7833 31.65 28.625 31.725 28.475 31.775C28.325 31.825 28.15 31.85 27.95 31.85C27.4833 31.85 27.0917 31.7 26.775 31.4C26.4583 31.1 26.3 30.7 26.3 30.2Z" fill="#90C47B"/>
</svg>