<svg xmlns="http://www.w3.org/2000/svg" width="24" height="24" viewBox="0 0 24 24" fill="none">
    <path d="M4.74098 13.387C4.35966 13.387 4.03368 13.2515 3.76303 12.9805C3.49238 12.7095 3.35706 12.3823 3.35706 11.999C3.35706 11.6123 3.4934 11.2847 3.76608 11.016C4.03878 10.7474 4.3666 10.6131 4.74953 10.6131C5.13038 10.6131 5.45782 10.7484 5.73186 11.0192C6.00589 11.29 6.14291 11.6173 6.14291 12.0011C6.14291 12.3877 6.00458 12.7153 5.72793 12.984C5.45128 13.2526 5.1223 13.387 4.74098 13.387ZM11.9989 13.387C11.6123 13.387 11.2847 13.2515 11.016 12.9805C10.7474 12.7095 10.613 12.3823 10.613 11.999C10.613 11.6123 10.7485 11.2847 11.0195 11.016C11.2905 10.7474 11.6177 10.6131 12.001 10.6131C12.3876 10.6131 12.7153 10.7484 12.984 11.0192C13.2526 11.29 13.3869 11.6173 13.3869 12.0011C13.3869 12.3877 13.2515 12.7153 12.9808 12.984C12.71 13.2526 12.3827 13.387 11.9989 13.387ZM19.2506 13.387C18.8643 13.387 18.5355 13.2515 18.2641 12.9805C17.9927 12.7095 17.8571 12.3823 17.8571 11.999C17.8571 11.6123 17.9943 11.2847 18.2688 11.016C18.5433 10.7474 18.8733 10.6131 19.2587 10.6131C19.6442 10.6131 19.9723 10.7484 20.2429 11.0192C20.5136 11.29 20.6489 11.6173 20.6489 12.0011C20.6489 12.3877 20.512 12.7153 20.2383 12.984C19.9645 13.2526 19.6353 13.387 19.2506 13.387Z" fill="#90C47B"/>
</svg>