<svg xmlns="http://www.w3.org/2000/svg" width="48" height="48" viewBox="0 0 48 48" fill="none">
    <path d="M29.45 36.1C28.9659 36.1 28.5531 35.9294 28.2119 35.5881C27.8706 35.2469 27.7 34.8342 27.7 34.35V13.55C27.7 13.0992 27.8706 12.6948 28.2119 12.3368C28.5531 11.9789 28.9659 11.8 29.45 11.8H34.15C34.6009 11.8 35.0052 11.9789 35.3632 12.3368C35.7211 12.6948 35.9 13.0992 35.9 13.55V34.35C35.9 34.8342 35.7211 35.2469 35.3632 35.5881C35.0052 35.9294 34.6009 36.1 34.15 36.1H29.45ZM13.9 36.1C13.4159 36.1 13.0032 35.9294 12.6619 35.5881C12.3207 35.2469 12.15 34.8342 12.15 34.35V13.55C12.15 13.0992 12.3207 12.6948 12.6619 12.3368C13.0032 11.9789 13.4159 11.8 13.9 11.8H18.65C19.075 11.8 19.4729 11.9789 19.8438 12.3368C20.2146 12.6948 20.4 13.0992 20.4 13.55V34.35C20.4 34.8342 20.2146 35.2469 19.8438 35.5881C19.4729 35.9294 19.075 36.1 18.65 36.1H13.9Z" fill="#90C47B"/>
</svg>