<svg xmlns="http://www.w3.org/2000/svg" width="48" height="48" viewBox="0 0 48 48" fill="none">
    <path d="M14 33.6949V14.2373C14 13.5808 14.2275 13.0438 14.6825 12.6262C15.1375 12.2087 15.6909 12 16.3428 12C16.4532 12 16.6243 12.0113 16.8559 12.0339C17.0876 12.0565 17.3107 12.1356 17.5254 12.2712L32.8475 22.1017C33.1864 22.3277 33.4633 22.6102 33.678 22.9492C33.8927 23.2881 34 23.642 34 24.0107C34 24.3794 33.887 24.7297 33.661 25.0616C33.435 25.3934 33.1638 25.6497 32.8475 25.8305L17.5254 35.661C17.3092 35.8418 17.0795 35.9435 16.8363 35.9661C16.5931 35.9887 16.4184 36 16.3124 36C15.6748 36 15.1299 35.7913 14.678 35.3738C14.226 34.9562 14 34.3966 14 33.6949Z" fill="#90C47B"/>
</svg>