<svg xmlns="http://www.w3.org/2000/svg" width="24" height="24" viewBox="0 0 24 24" fill="none">
    <path d="M6.33332 19.1C5.90507 19.1 5.55913 18.9672 5.2955 18.7015C5.03185 18.4359 4.90002 18.0856 4.90002 17.6506V14.95C4.90002 14.5392 5.03325 14.1948 5.2997 13.9169C5.56615 13.639 5.91349 13.5 6.34172 13.5C6.76996 13.5 7.1159 13.639 7.37955 13.9169C7.6432 14.1948 7.77502 14.5392 7.77502 14.95V17.6506C7.77502 18.0856 7.6418 18.4359 7.37535 18.7015C7.1089 18.9672 6.76156 19.1 6.33332 19.1ZM11.9958 19.1C11.5759 19.1 11.2341 18.9672 10.9705 18.7015C10.7068 18.4359 10.575 18.0878 10.575 17.6572V6.32499C10.575 5.90624 10.7082 5.56406 10.9747 5.29844C11.2411 5.03281 11.5843 4.89999 12.0042 4.89999C12.4241 4.89999 12.7701 5.03281 13.0421 5.29844C13.314 5.56406 13.45 5.90624 13.45 6.32499V17.6572C13.45 18.0878 13.3107 18.4359 13.0319 18.7015C12.7532 18.9672 12.4078 19.1 11.9958 19.1ZM17.6583 19.1C17.2301 19.1 16.8841 18.9672 16.6205 18.7015C16.3568 18.4359 16.225 18.0854 16.225 17.65V11.2052C16.225 10.783 16.3582 10.4349 16.6247 10.1609C16.8911 9.88698 17.2385 9.74999 17.6667 9.74999C18.095 9.74999 18.4409 9.88895 18.7046 10.1669C18.9682 10.4448 19.1 10.7892 19.1 11.2V17.65C19.1 18.0854 18.9668 18.4359 18.7003 18.7015C18.4339 18.9672 18.0866 19.1 17.6583 19.1Z" fill="#90C47B"/>
</svg>