<svg xmlns="http://www.w3.org/2000/svg" width="37" height="37" viewBox="0 0 37 37" fill="none">
    <path d="M24.3538 29.4458C23.3633 29.4458 22.5062 29.0934 21.7825 28.3885C21.0588 27.6836 20.6969 26.8276 20.6969 25.8207C20.6969 24.7923 21.0491 23.9189 21.7536 23.2005C22.458 22.4821 23.3134 22.1229 24.3198 22.1229C24.7574 22.1229 25.1752 22.2193 25.573 22.412C25.9709 22.6047 26.3368 22.8295 26.6708 23.0865V11.7938C26.6708 11.452 26.7818 11.1739 27.0038 10.9593C27.2257 10.7448 27.513 10.6375 27.8656 10.6375H31.3732C31.7077 10.6375 31.984 10.7466 32.202 10.9648C32.4201 11.1829 32.5292 11.4656 32.5292 11.8127C32.5292 12.1598 32.4219 12.4425 32.2074 12.6609C31.9928 12.8794 31.7147 12.9886 31.3729 12.9886H27.9813V25.8615C27.9813 26.8571 27.6206 27.7034 26.8992 28.4004C26.1778 29.0974 25.3293 29.4458 24.3538 29.4458ZM6.66772 23.0094C6.48208 23.0094 6.32646 22.9424 6.20087 22.8085C6.0753 22.6747 6.01251 22.5196 6.01251 22.3433C6.01251 22.1671 6.0753 22.0157 6.20087 21.889C6.32646 21.7623 6.48208 21.699 6.66772 21.699H16.1104C16.2961 21.699 16.4517 21.7623 16.5773 21.8891C16.7029 22.0158 16.7656 22.1729 16.7656 22.3603C16.7656 22.5367 16.7029 22.689 16.5773 22.8172C16.4517 22.9453 16.2961 23.0094 16.1104 23.0094H6.66772ZM6.66772 17.4979C6.48208 17.4979 6.32646 17.4284 6.20087 17.2893C6.0753 17.1503 6.01251 16.9888 6.01251 16.8049C6.01251 16.621 6.0753 16.4657 6.20087 16.339C6.32646 16.2123 6.48208 16.149 6.66772 16.149H21.8917C22.0773 16.149 22.2329 16.2138 22.3585 16.3434C22.4841 16.473 22.5469 16.6336 22.5469 16.8251C22.5469 17.0167 22.4841 17.1767 22.3585 17.3052C22.2329 17.4337 22.0773 17.4979 21.8917 17.4979H6.66772ZM6.66772 11.9479C6.48208 11.9479 6.32646 11.881 6.20087 11.7471C6.0753 11.6132 6.01251 11.4582 6.01251 11.2819C6.01251 11.1057 6.0753 10.9542 6.20087 10.8275C6.32646 10.7008 6.48208 10.6375 6.66772 10.6375H21.8917C22.0773 10.6375 22.2329 10.7009 22.3585 10.8276C22.4841 10.9544 22.5469 11.1114 22.5469 11.2988C22.5469 11.4753 22.4841 11.6276 22.3585 11.7557C22.2329 11.8839 22.0773 11.9479 21.8917 11.9479H6.66772Z" fill="#90C47B"/>
</svg>