<svg xmlns="http://www.w3.org/2000/svg" width="48" height="48" viewBox="0 0 48 48" fill="none">
    <path d="M37.5 31.55L28.3 25.4C28.0333 25.2666 27.85 25.0666 27.75 24.8C27.65 24.5333 27.6 24.2666 27.6 24C27.6 23.7333 27.65 23.4666 27.75 23.2C27.85 22.9333 28.0333 22.7166 28.3 22.55L37.5 16.45C37.6 16.35 37.7333 16.2666 37.9 16.2C38.0667 16.1333 38.2333 16.1 38.4 16.1C38.8667 16.1 39.2667 16.2583 39.6 16.575C39.9333 16.8916 40.1 17.3 40.1 17.8V30.2C40.1 30.7 39.9333 31.1 39.6 31.4C39.2667 31.7 38.8667 31.85 38.4 31.85C38.2333 31.85 38.0667 31.825 37.9 31.775C37.7333 31.725 37.6 31.65 37.5 31.55ZM19.15 31.55L10 25.4C9.7 25.2666 9.5 25.0666 9.4 24.8C9.3 24.5333 9.25 24.2666 9.25 24C9.25 23.7333 9.3 23.4666 9.4 23.2C9.5 22.9333 9.7 22.7166 10 22.55L19.15 16.45C19.25 16.35 19.3833 16.2666 19.55 16.2C19.7167 16.1333 19.9 16.1 20.1 16.1C20.5667 16.1 20.9667 16.2583 21.3 16.575C21.6333 16.8916 21.8 17.3 21.8 17.8V30.2C21.8 30.7 21.6333 31.1 21.3 31.4C20.9667 31.7 20.5667 31.85 20.1 31.85C19.9 31.85 19.7167 31.825 19.55 31.775C19.3833 31.725 19.25 31.65 19.15 31.55Z" fill="#90C47B"/>
</svg>