<svg xmlns="http://www.w3.org/2000/svg" width="24" height="24" viewBox="0 0 24 24" fill="none">
    <path d="M9.51096 15.2C7.87731 15.2 6.50457 14.6458 5.39276 13.5375C4.28092 12.4292 3.72501 11.0625 3.72501 9.43749C3.72501 7.81249 4.27917 6.44582 5.38751 5.33749C6.49584 4.22915 7.85644 3.67499 9.46931 3.67499C11.0822 3.67499 12.453 4.22915 13.5818 5.33749C14.7106 6.44582 15.275 7.81072 15.275 9.43219C15.275 10.1274 15.1542 10.8083 14.9125 11.475C14.6708 12.1417 14.3333 12.7167 13.9 13.2L19.975 19.25C20.0583 19.3259 20.1042 19.4324 20.1125 19.5694C20.1208 19.7065 20.075 19.8167 19.975 19.9C19.875 19.9833 19.766 20.025 19.6481 20.025C19.5301 20.025 19.4224 19.975 19.325 19.875L13.3 13.85C12.7899 14.3013 12.1895 14.6391 11.4987 14.8634C10.808 15.0878 10.1454 15.2 9.51096 15.2ZM9.48751 14.325C10.8806 14.325 12.0476 13.8601 12.9886 12.9302C13.9295 12.0003 14.4 10.8361 14.4 9.43749C14.4 8.03887 13.9303 6.87464 12.9908 5.94479C12.0513 5.01492 10.8842 4.54999 9.48971 4.54999C8.09519 4.54999 6.93161 5.01492 5.99896 5.94479C5.06632 6.87464 4.60001 8.03887 4.60001 9.43749C4.60001 10.8361 5.06632 12.0003 5.99896 12.9302C6.93161 13.8601 8.09446 14.325 9.48751 14.325Z" fill="white"/>
</svg>