<svg xmlns="http://www.w3.org/2000/svg" width="24" height="24" viewBox="0 0 24 24" fill="none">
    <path d="M6.59999 21.1C6.1379 21.1 5.74321 20.9364 5.41591 20.6091C5.08863 20.2818 4.92499 19.8871 4.92499 19.425V4.57499C4.92499 4.11291 5.08863 3.71823 5.41591 3.39094C5.74321 3.06364 6.1379 2.89999 6.59999 2.89999H13.975C14.1988 2.89999 14.4142 2.94655 14.6212 3.03967C14.8282 3.13278 15.0128 3.25289 15.175 3.39999L18.575 6.77499C18.7221 6.95386 18.8422 7.14263 18.9353 7.34129C19.0284 7.53994 19.075 7.75951 19.075 7.99999V19.425C19.075 19.8871 18.9113 20.2818 18.584 20.6091C18.2568 20.9364 17.8621 21.1 17.4 21.1H6.59999ZM14.225 6.87499C14.225 7.10833 14.3083 7.30833 14.475 7.47499C14.6417 7.64166 14.8417 7.72499 15.075 7.72499H18.2L14.225 3.77499V6.87499ZM10.7476 18.95C11.3492 18.95 11.8708 18.7381 12.3125 18.3142C12.7542 17.8903 12.975 17.3689 12.975 16.75V12.2H15C15.1829 12.2 15.3495 12.1332 15.4997 11.9995C15.6499 11.8659 15.725 11.6909 15.725 11.4745C15.725 11.2915 15.6499 11.1292 15.4997 10.9875C15.3495 10.8458 15.1829 10.775 15 10.775H12.9C12.7171 10.775 12.5547 10.8459 12.4128 10.9878C12.2709 11.1297 12.2 11.2921 12.2 11.475V15.2C12.0167 15 11.7958 14.8458 11.5375 14.7375C11.2792 14.6292 11.0186 14.575 10.7558 14.575C10.1352 14.575 9.61665 14.7867 9.19999 15.2101C8.78332 15.6336 8.57499 16.1461 8.57499 16.7476C8.57499 17.3659 8.78254 17.8875 9.19764 18.3125C9.61274 18.7375 10.1294 18.95 10.7476 18.95Z" fill="#90C47B"/>
</svg>