<svg xmlns="http://www.w3.org/2000/svg" width="48" height="48" viewBox="0 0 48 48" fill="none">
    <path d="M18.8 27.9H13.6C13.1333 27.9 12.7417 27.7416 12.425 27.425C12.1083 27.1083 11.95 26.7 11.95 26.2V21.75C11.95 21.2833 12.1083 20.8916 12.425 20.575C12.7417 20.2583 13.1333 20.1 13.6 20.1H18.8L24.15 14.65C24.45 14.35 24.8 14.275 25.2 14.425C25.6 14.575 25.8 14.85 25.8 15.25V32.7C25.8 33.1333 25.6 33.425 25.2 33.575C24.8 33.725 24.45 33.6333 24.15 33.3L18.8 27.9ZM35.1 24C35.1 25.1333 34.9 26.1916 34.5 27.175C34.1 28.1583 33.4667 29 32.6 29.7C32.3667 29.9 32.125 29.9333 31.875 29.8C31.625 29.6666 31.5 29.45 31.5 29.15V18.75C31.5 18.4833 31.625 18.2916 31.875 18.175C32.125 18.0583 32.3667 18.0833 32.6 18.25C33.4667 18.95 34.1 19.8 34.5 20.8C34.9 21.8 35.1 22.8666 35.1 24Z" fill="#90C47B"/>
</svg>